<svg height="35" viewBox="0 0 140 35" width="140" xmlns="http://www.w3.org/2000/svg"><path d="m29.6154249 5.71770335h-13.9792274c-3.0805643 0-5.0409234 2.55980861-5.5310131 5.71770335h18.6234114c-.4900898 3.1578947-2.4504489 5.7177033-5.5310132 5.7177033h-9.3350433c-3.0805643 0-5.04092338 2.5598087-5.53101316 5.7177034h18.62341136c-.4900897 3.1578947-2.4504488 5.7177033-5.5310131 5.7177033h-13.97922737l-.8401539 5.3110048h18.57673617c3.8973806 0 7.6080603-3.2535885 8.2148381-7.2727272l3.1739147-20.9330144zm-26.37149735 1.9138756c.65345303-4.21052632 4.50415839-7.63157895 8.61157745-7.63157895h18.6234114l-.6534531 4.61722488h8.1214877l-3.4072908 22.15311002c-.653453 4.9043062-4.7842097 8.2296651-9.3117057 8.2296651h-19.8603046l.93350433-6.3875598-6.30115423.0239234zm69.80278625 12.87081335 5.0409234-13.63636359c.2333761-.59808613.536765-1.12440192 1.1668804-1.14832536h6.8145816l-3.1505771 22.94258375h-4.4808208l2.3570984-17.200957-6.907932 17.200957h-3.990731l-1.9836967-17.2727273-2.380436 17.2727273h-4.5508337l2.9872139-21.69856461c.116688-.62200957.5601026-1.19617225 1.2135556-1.2200957h6.2311414zm27.1649762 8.1578948 2.963876-21.65071772c.09335-.62200957.536765-1.24401914 1.190218-1.29186603h3.593992l-3.150577 22.94258375zm6.53453-12.8229665 4.760872-8.82775122c.326727-.59808613.58344-1.19617225 1.190218-1.29186603h4.410808l-5.461 10.19138755 2.870526 12.7511962h-5.040924zm9.475069 12.8229665 2.963876-21.69856461c.116688-.62200957.560103-1.19617225 1.213556-1.24401914h3.593992l-3.150578 22.94258375zm14.726031-18.99521533-.933504 6.81818183c.746803 0 3.197252.0239234 3.89738-.3349282 2.357099-1.2440192 2.917201-6.43540674-1.003517-6.45933018h-1.960359zm-7.234659 18.99521533 2.963877-21.67464117c.116688-.64593301.58344-1.24401914 1.26023-1.24401914h3.523979l1.983697.02392345c1.796996.02392344 3.80403.26315789 5.110936 1.67464115 2.14706 2.60765551 1.890346 7.48803831-.700128 10.62200961-2.287086 2.7272727-6.161129 2.5598086-8.448214 2.6076555l-1.096868 8.0382775h-4.597509zm-32.0191982.5023923c-5.717714 0-6.6045431-3.6602871-6.3478294-7.583732h4.4108079c0 2.1770335.0933504 3.9952153 2.6371497 3.9952153 1.5636198 0 2.3337609-1.0287082 2.3337609-2.5837321 0-4.0909091-7.5613851-4.3301435-7.5613851-11.076555 0-3.54066986 1.6569702-6.57894737 7.2813338-6.57894737 4.5041584 0 6.5345304 2.29665072 6.2311414 7.03349287h-4.2941199c0-1.6985646-.2800513-3.42105268-2.14706-3.42105268-1.4936069 0-2.380436.83732058-2.380436 2.41626798 0 4.3062201 7.561385 3.9234449 7.561385 11.0526315 0 5.8612441-4.2007695 6.7464115-7.7247483 6.7464115zm-51.9961912-.5023923 2.9638763-21.67464117c.116688-.62200957.5601026-1.22009569 1.2135556-1.26794258h10.0351715l-.5367649 3.99521531h-6.4645175l-.7001283 5.09569374h6.254479l-.5601026 4.0430622h-6.254479l-.7934787 5.8133972h6.6278808l-.536765 3.9952153zm13.7925265.0239234 2.9638762-21.62679423c.0933505-.64593302.5601026-1.29186603 1.2368933-1.31578948h3.570654l-3.1505771 22.94258371z" fill="#fff" fill-rule="evenodd" transform="" /></svg>