<?xml version="1.0" encoding="utf-8"?>
<!-- Generator: Adobe Illustrator 21.1.0, SVG Export Plug-In . SVG Version: 6.00 Build 0)  -->
<svg version="1.1" id="Ebene_1" xmlns="http://www.w3.org/2000/svg" xmlns:xlink="http://www.w3.org/1999/xlink" x="0px" y="0px"
	 viewBox="0 0 250.9 38.3" style="enable-background:new 0 0 250.9 38.3;" xml:space="preserve">
<style type="text/css">
	.st0{opacity:0.44;fill:none;stroke:#0C419A;stroke-width:2;enable-background:new    ;}
	.st1{fill:#FFFFFF;stroke:#8DAAD1;stroke-width:0.8504;stroke-miterlimit:3.8637;}
	.st2{fill:#0C419A;stroke:#0C419A;stroke-width:0.2798;stroke-miterlimit:3.8637;}
	.st3{fill:#FFEB00;stroke:#FFEB00;stroke-width:0.4141;stroke-miterlimit:3.8637;}
	.st4{fill:#FFFFFF;}
	.st5{fill:#FF0000;}
	.st6{fill:none;stroke:#15368A;stroke-width:0.2798;stroke-miterlimit:3.8637;}
	.st7{fill:#15368A;}
</style>
<g>
	<line class="st0" x1="27" y1="5.7" x2="37.1" y2="38"/>
	<path class="st1" d="M29.8,8.9l6.6,21.3c0,0,4.4-2.3,8.1-2.5c10-0.5,8,0.8,17,0.1c4-0.3,7.1-2.1,7.1-2.1L62,4.5
		c0,0-5.3,1.9-8.8,2.1C47.5,7,46.1,5.2,37.3,6.1C33.9,6.4,29.8,8.9,29.8,8.9L29.8,8.9z"/>
	<path class="st2" d="M41,10.4l4.4,14.2c0,0,4-0.8,7.8-0.2c2,0.3,4.1,0.1,4.1,0.1l-0.9-2.7c0,0-2.2,0.2-4.5-0.1
		c-2.2-0.3-4.4,0.1-4.4,0.1l-1.1-3.3c0,0,1.8-0.6,4.4-0.1c1.7,0.3,4.5,0.1,4.5,0.1l-0.9-2.7c0,0-2.8,0.3-4.5-0.1
		c-2.2-0.5-4.3,0.1-4.3,0.1l-0.8-2.7c0,0,2-0.5,4.3-0.1c1.8,0.3,4.7,0.1,4.7,0.1l-1-2.8c0,0-3,0.2-4.9-0.1C44,9.6,41,10.4,41,10.4
		L41,10.4z"/>
	<path class="st3" d="M2.8,4.7L9.4,26c0,0,4.4-2.3,8.2-2.5c10.1-0.5,8,0.8,17.1,0.1c4-0.3,7.6-2.4,7.6-2.4l-7.1-21
		c0,0-5.3,1.9-8.8,2.1c-5.8,0.5-7.2-1.3-16-0.5C7,2.2,2.8,4.7,2.8,4.7L2.8,4.7z"/>
	<path d="M23.9,20.5l9.3-8.6c0,0-4.8-3.3-8.7-4.5c-2.1-0.7-3.7-1.9-3.7-1.9l-9.1,9.3c0,0,1.8,1.2,3.6,1.7
		C19.6,17.6,23.9,20.5,23.9,20.5L23.9,20.5z"/>
	<path class="st4" d="M23.5,18.7l7.2-6.5c0,0-3.2-2.1-5.9-3c-2.2-0.7-3.7-1.9-3.7-1.9l-6.9,7c0,0,1.6,1.2,3.3,1.6
		C20.2,16.4,23.5,18.7,23.5,18.7L23.5,18.7z"/>
	<path class="st5" d="M23.1,16.7l5-4c0,0-1.4-1-2.9-1.5c-1.9-0.6-3.7-1.9-3.7-1.9l-4.7,4.5c0,0,1.4,1.1,2.9,1.3
		C21.3,15.4,23.1,16.7,23.1,16.7L23.1,16.7z"/>
	<line class="st0" x1="1" y1="5" x2="11" y2="37.3"/>
</g>
<line class="st6" x1="80" y1="1" x2="80" y2="32.4"/>
<g>
	<path class="st7" d="M113.7,28.7c-1.2,1.2-3.8,3.5-8.9,3.5c-8.5,0-13.7-6.9-13.7-15.8c0-9.8,6.3-16.3,15-16.3c8,0,12,5.2,13.4,7
		l-5.8,3.5c-1.1-1.6-2.8-4.3-7.1-4.3c-5.8,0-8,4.8-8,9.8c0,3.4,0.9,6.2,2.4,7.7c1.2,1.2,3.2,2.2,5.5,2.2c1.4,0,2.9-0.3,4.2-1.2
		c2-1.3,2.2-2.9,2.5-4.5h-6.8v-5.8h13.2v16.9h-5.9C113.7,31.4,113.7,28.7,113.7,28.7z"/>
	<path class="st7" d="M126.3,1.2H140c3.2,0,7.1,0.1,9.9,3.1c1.4,1.6,2.4,4,2.4,6.8c0,6.1-4.2,7.6-6.2,8.4l7,12.1h-8.4l-6-10.8h-4.8
		v10.8h-7.6C126.3,31.6,126.3,1.2,126.3,1.2z M133.9,6.8V15h6.3c1.1,0,4.6-0.1,4.6-4.2c0-3.9-2.8-4-4.4-4H133.9z"/>
	<path class="st7" d="M171.7,32.4c-9.6,0-15.1-7.4-15.1-16.2c0-8.2,5.2-16,15-16c1.8,0,3.7,0.3,5.5,0.9c9.3,3.2,9.9,13.3,9.9,15.4
		c0,5.2-2.4,10-5.8,12.7C178.3,31.6,174.8,32.4,171.7,32.4z M176.9,8.8c-1.3-1.4-3.3-2.2-5.3-2.2c-4.6,0-7.5,4-7.5,9.5
		c0,7.2,4,9.9,7.6,9.9s7.5-2.6,7.7-8.9C179.5,13.8,178.6,10.6,176.9,8.8z"/>
	<path class="st7" d="M217.4,1.2v16.9c0,2.9-0.1,5.8-1.8,8.6c-3.3,5.2-10,5.5-11.3,5.5c-2.3,0-5-0.6-7.1-1.6
		c-5.8-3-5.8-8.3-5.8-12.5V1.2h7.7v18.9c0,1.5,0,2.8,0.6,3.8c0.9,1.6,3,2.1,4.9,2.1c5.2,0,5.2-3.5,5.2-5.9V1.2H217.4z"/>
	<path class="st7" d="M224.9,1.2h12.2c5,0,9.4,0,12.1,3.8c1.2,1.7,1.7,4.2,1.7,6.2c0,1.7-0.3,3.3-1,4.7c-2.6,5.4-8.2,5.5-12.3,5.6
		h-5v9.9H225L224.9,1.2L224.9,1.2z M232.5,6.7v9.2h4.6c2.8,0,6.3-0.1,6.3-4.8c0-4.4-3.8-4.4-6-4.4C237.4,6.7,232.5,6.7,232.5,6.7z"
		/>
</g>
</svg>
